<?xml version="1.0" encoding="UTF-8"?><svg id="Layer_2" xmlns="http://www.w3.org/2000/svg" viewBox="0 0 71.28 104.14"><g id="Layer_1-2"><g><path d="m35.57,0S15,6,0,37.71v66.42h71.28V37.71C56.14,6,35.57,0,35.57,0Zm31.43,41.43h-6.1v4.43h6.1v25.71l-18.25-18.25h-3.43v3l21.53,21.53v22h-2.71l-18.82-40.23v10.22l13.96,29.88h-21.43v-4.39h-4.43v4.53H11.86l14.1-30.17v-10.55L7,99.85h-2.71v-21.71l21.67-21.67v-3.14h-3.14l-18.53,18.53v-26h5.96v-4.43h-5.96v-2.71c2.86-5.86,5.86-10.57,8.86-14.71l9.96,9.96h2.86v-3.35l-10.1-10.19c3.57-4.29,7-7.57,9.86-9.71,3.14-2.43,5.71-4,7.71-5v12.67h4.43V5.57c2,1,4.71,2.57,7.71,5,2.86,2.43,6.29,5.57,10,10l-10.25,10.25v3.14h3.14l9.82-9.82c2.86,4,5.86,8.71,8.71,14.57v2.71Z" fill="#fff"/><polygon points="56.14 38.71 40.57 38.71 40.57 23.14 30.72 23.14 30.72 38.71 15 38.71 15 48.57 30.72 48.57 30.72 90.57 40.57 90.57 40.57 48.57 56.14 48.57 56.14 38.71" fill="#fff"/></g></g></svg>