<?xml version="1.0" encoding="UTF-8"?><svg id="Layer_2" xmlns="http://www.w3.org/2000/svg" viewBox="0 0 271.35 73.52"><g id="Layer_1-2"><g><g><path d="m11.12,49.65c0-.64.11-1.04.32-1.22.21-.18.62-.26,1.24-.26h5.22c.89,0,1.46-.13,1.69-.39.23-.26.35-.83.35-1.73V9.74c0-.54-.09-.92-.28-1.13-.19-.21-.55-.32-1.09-.32h-1.98c-2.71,0-4.82.35-6.33,1.06-1.52.71-2.59,1.93-3.21,3.67-.62,1.74-.97,4.18-1.04,7.3-.02.68-.15,1.14-.37,1.38s-.71.35-1.46.35H1.52c-.63,0-1.05-.12-1.23-.37-.19-.25-.28-.66-.28-1.25V3.88c0-.78.08-1.29.23-1.55.15-.26.62-.39,1.39-.39h47.74c.61,0,1.01.11,1.18.34s.26.66.26,1.32v16.9c0,.71-.11,1.14-.34,1.31-.22.16-.7.25-1.43.25h-2.51c-.8,0-1.29-.12-1.46-.37s-.28-.72-.3-1.43c-.07-3.1-.42-5.52-1.06-7.25-.63-1.73-1.7-2.95-3.19-3.65-1.49-.71-3.59-1.06-6.3-1.06h-2.01c-.56,0-.93.11-1.09.32-.16.21-.25.61-.25,1.2v35.92c0,1.01.11,1.67.32,1.98.21.3.81.46,1.8.46h4.94c.78,0,1.26.12,1.46.35.2.24.3.73.3,1.48v3.14c0,.78-.15,1.26-.46,1.45-.31.19-.82.28-1.55.28H12.88c-.71,0-1.18-.09-1.41-.26-.24-.18-.35-.63-.35-1.36v-3.6Z" fill="#19347f"/><path d="m59.33,24.1c-.13-.19-.48-.28-1.04-.28h-3.95c-.52,0-.84-.08-.97-.23-.13-.15-.19-.49-.19-1.01v-3.11c0-.52.08-.86.23-1.04s.49-.26,1.01-.26h13.8c.42,0,.73.06.92.18s.28.41.28.88v3.28c0,.68.05,1.09.14,1.22.09.13.28-.06.56-.58.99-1.72,2.35-3.15,4.08-4.31,1.73-1.15,3.96-1.73,6.69-1.73s4.89.69,6.76,2.08c1.87,1.39,2.81,3.38,2.81,5.96,0,1.11-.25,2.21-.74,3.3-.49,1.09-1.22,2.01-2.19,2.73-.97.73-2.15,1.09-3.56,1.09-1.74,0-3.19-.45-4.34-1.34s-1.73-2.06-1.73-3.49c0-.99.15-1.75.46-2.28.31-.53.62-.95.93-1.25.32-.3.48-.6.48-.88s-.11-.5-.34-.65-.64-.23-1.25-.23c-1.36,0-2.66.61-3.9,1.83-1.23,1.22-2.24,2.86-3,4.9-.76,2.05-1.15,4.28-1.15,6.71v12.28c0,.54.07.9.21,1.08.14.18.49.26,1.06.26h4.13c.45,0,.72.08.81.25.09.16.14.47.14.92v3.21c0,.49-.05.83-.16,1.01s-.39.26-.86.26h-21c-.45,0-.77-.07-.97-.21s-.3-.43-.3-.88v-3.53c0-.47.08-.76.25-.86.16-.11.47-.16.92-.16h3.63c.56,0,.96-.07,1.2-.21s.35-.49.35-1.06v-22.72c0-.56-.07-.94-.19-1.13Z" fill="#19347f"/><path d="m94.28,23.82c-.33,0-.55-.05-.67-.14-.12-.09-.18-.31-.18-.64v-3.92c0-.64.32-.95.95-.95h15.21c.3,0,.51.04.62.12.11.08.16.28.16.58v29.46c0,.33.05.56.14.69.09.13.29.19.6.19h4.69c.38,0,.62.04.74.11.12.07.18.3.18.67v3.88c0,.42-.06.69-.18.81s-.39.18-.81.18h-21.31c-.38,0-.64-.05-.78-.16-.14-.11-.21-.35-.21-.72v-3.74c0-.45.07-.73.21-.85.14-.12.42-.18.85-.18h4.45c.38,0,.61-.05.71-.16.09-.11.14-.35.14-.72v-23.64c0-.59-.25-.88-.74-.88h-4.76Zm5.96-22.25c1.25-1.05,2.74-1.57,4.48-1.57s3.26.52,4.5,1.57c1.24,1.05,1.85,2.46,1.85,4.25s-.62,3.18-1.85,4.23-2.73,1.59-4.5,1.59-3.23-.53-4.48-1.59c-1.25-1.06-1.87-2.47-1.87-4.23s.62-3.2,1.87-4.25Z" fill="#19347f"/><path d="m121.6,23.82c-.54,0-.88-.09-1.02-.26s-.21-.53-.21-1.08v-2.96c0-.56.12-.93.37-1.09.25-.16.62-.25,1.11-.25h13.2c.47,0,.85.11,1.13.34.28.22.42.61.42,1.15v2.72c0,.89.09,1.38.26,1.45.18.07.44-.13.79-.6,1.2-1.67,2.72-3.1,4.55-4.3,1.83-1.2,4.27-1.8,7.3-1.8,2.87,0,5.2.45,6.99,1.36s3.09,2.23,3.92,3.97c.82,1.74,1.24,3.87,1.24,6.39v18.84c0,.66.08,1.08.23,1.27s.57.28,1.25.28h3.78c.42,0,.71.08.86.25.15.16.23.47.23.92v3.18c0,.61-.11.98-.34,1.11-.22.13-.64.2-1.25.2h-19.2c-.52,0-.83-.1-.93-.3s-.16-.56-.16-1.08v-2.96c0-.45.05-.78.16-.99s.38-.32.83-.32h2.51c.59,0,.98-.08,1.16-.23s.28-.54.28-1.15v-18.07c0-2.26-.39-3.91-1.18-4.96-.79-1.05-2.04-1.57-3.76-1.57-1.6,0-3.07.46-4.41,1.39-1.34.93-2.41,2.26-3.21,4-.8,1.74-1.2,3.82-1.2,6.25v12.91c0,.52.09.88.26,1.09s.55.32,1.11.32h2.22c.52,0,.87.07,1.06.21s.28.48.28,1.02v3.21c0,.52-.11.85-.34.99s-.57.21-1.04.21h-19.44c-.49,0-.79-.09-.9-.26s-.16-.52-.16-1.04v-3.03c0-.56.09-.92.26-1.08.18-.15.53-.23,1.08-.23h3.53c.59,0,.98-.06,1.18-.18s.3-.47.3-1.06v-23.08c0-.49-.08-.8-.25-.92-.16-.12-.49-.18-.99-.18h-3.88Z" fill="#19347f"/><path d="m172.44,23.82c-.33,0-.55-.05-.67-.14-.12-.09-.18-.31-.18-.64v-3.92c0-.64.32-.95.95-.95h15.21c.3,0,.51.04.62.12.11.08.16.28.16.58v29.46c0,.33.05.56.14.69.09.13.29.19.6.19h4.69c.38,0,.62.04.74.11.12.07.18.3.18.67v3.88c0,.42-.06.69-.18.81s-.39.18-.81.18h-21.31c-.38,0-.63-.05-.78-.16-.14-.11-.21-.35-.21-.72v-3.74c0-.45.07-.73.21-.85.14-.12.42-.18.85-.18h4.45c.38,0,.61-.05.71-.16.09-.11.14-.35.14-.72v-23.64c0-.59-.25-.88-.74-.88h-4.76Zm5.96-22.25c1.25-1.05,2.74-1.57,4.48-1.57s3.26.52,4.5,1.57c1.24,1.05,1.85,2.46,1.85,4.25s-.62,3.18-1.85,4.23-2.73,1.59-4.5,1.59-3.23-.53-4.48-1.59c-1.25-1.06-1.87-2.47-1.87-4.23s.62-3.2,1.87-4.25Z" fill="#19347f"/><path d="m221.6,51.91c-.99,1.18-2.26,2.13-3.81,2.88s-3.52,1.11-5.89,1.11c-3.32,0-5.74-.76-7.27-2.28-1.53-1.52-2.29-3.71-2.29-6.58v-21.95c0-.47-.06-.8-.18-.99-.12-.19-.41-.28-.88-.28h-4.38c-.45,0-.75-.07-.9-.21-.15-.14-.23-.43-.23-.88v-3.42c0-.52.07-.84.21-.95.14-.12.46-.18.95-.18,1.34,0,2.56-.1,3.65-.3,1.09-.2,2.09-.63,2.98-1.29.89-.66,1.69-1.66,2.38-3.02s1.3-3.19,1.82-5.52c.09-.47.19-.78.3-.93s.45-.23,1.04-.23h2.75c.71,0,1.06.37,1.06,1.09v8.93c0,.52.09.86.26,1.02.18.16.51.25,1.01.25h7.38c.42,0,.7.07.83.19s.19.42.19.86v3.71c0,.38-.08.62-.25.72-.16.11-.44.16-.81.16h-7.3c-.42,0-.75.08-.97.23-.22.15-.34.46-.34.93v20.68c0,1.32.25,2.29.74,2.91.49.62,1.19.93,2.08.93.82,0,1.58-.27,2.28-.81.69-.54,1.36-1.38,1.99-2.51.21-.38.4-.61.56-.69.16-.08.45-.03.85.16l2.01,1.13c.38.21.63.41.76.58.13.18.1.44-.09.79-.68,1.32-1.52,2.56-2.51,3.74Z" fill="#19347f"/><path d="m225.85,58.84c.58-1.31,1.39-2.35,2.43-3.12,1.05-.78,2.26-1.16,3.65-1.16,1.51,0,2.79.43,3.85,1.3s1.59,2.12,1.59,3.74c0,1.06-.16,1.89-.49,2.5s-.74,1.07-1.22,1.38c-.48.31-.97.55-1.46.74s-.91.38-1.24.58c-.33.2-.49.51-.49.94,0,.63.28,1.19.85,1.66.56.47,1.39.71,2.47.71.92,0,1.88-.27,2.88-.81,1-.54,2.02-1.46,3.05-2.75,1.03-1.29,2.03-3.05,3-5.26l.85-1.87c.33-.71.48-1.31.44-1.82-.04-.51-.22-1.11-.55-1.82l-13.58-28.48c-.28-.61-.53-1.01-.74-1.2-.21-.19-.67-.28-1.38-.28h-2.72c-.52,0-.88-.08-1.09-.23-.21-.15-.32-.48-.32-.97v-3.56c0-.33.11-.56.32-.69.21-.13.48-.19.81-.19h20.22c.56,0,.95.11,1.16.34.21.22.32.64.32,1.25v2.29c0,.71-.11,1.18-.34,1.41-.22.24-.68.35-1.36.35h-2.75c-.73,0-1.18.05-1.34.16-.16.11-.13.41.11.9l6.92,15.07c.42.92.74,1.72.95,2.42.21.69.41,1.04.6,1.04.23,0,.46-.27.67-.81.21-.54.47-1.22.78-2.05l6.39-15.53c.19-.52.21-.85.07-.99-.14-.14-.59-.21-1.34-.21h-2.05c-.52,0-.84-.09-.97-.28s-.19-.52-.19-.99v-2.79c0-.61.09-1.03.28-1.25.19-.22.58-.34,1.16-.34h14.04c.4,0,.71.07.94.21.22.14.34.41.34.81v3.04c0,.52-.08.91-.23,1.18-.15.27-.5.41-1.04.41h-2.33c-.8,0-1.28.16-1.45.49s-.38.78-.63,1.34l-15.17,35.36c-1.32,3.01-2.76,5.43-4.32,7.25-1.56,1.82-3.23,3.13-4.99,3.93-1.76.8-3.62,1.2-5.58,1.2-2.16,0-4.04-.45-5.63-1.34-1.59-.89-2.82-2.11-3.69-3.63-.87-1.53-1.31-3.26-1.31-5.19,0-1.62.29-3.09.87-4.39Z" fill="#19347f"/></g><g><path d="m14.7,61.46c1.54,0,2.71.22,3.51.67.79.44,1.19,1.22,1.19,2.31,0,.69-.17,1.27-.52,1.73-.34.47-.84.76-1.48.87v.08c.43.08.83.22,1.18.43.35.21.64.5.84.88.21.38.31.89.31,1.51,0,1.08-.38,1.92-1.14,2.52-.76.6-1.8.9-3.12.9h-4.35v-11.89h3.58Zm.28,4.85c.84,0,1.42-.13,1.74-.4.32-.27.47-.66.47-1.18s-.19-.92-.57-1.15-.99-.35-1.81-.35h-1.57v3.08h1.73Zm-1.73,1.71v3.55h1.93c.87,0,1.47-.17,1.81-.5s.51-.78.51-1.33c0-.51-.18-.92-.52-1.24-.35-.32-.98-.47-1.89-.47h-1.83Z" fill="#5777a9"/><path d="m34.51,73.36l-1.08-3.15h-4.48l-1.07,3.15h-2.27l4.36-11.94h2.43l4.36,11.94h-2.27Zm-2.66-8.04c-.04-.15-.11-.37-.2-.63-.09-.27-.17-.54-.26-.82-.08-.28-.15-.52-.19-.71-.06.22-.12.48-.21.77-.08.29-.16.56-.24.82s-.13.45-.17.58l-1.05,3.06h3.35l-1.03-3.06Z" fill="#5777a9"/><path d="m46.89,61.46c1.54,0,2.67.32,3.37.97.7.64,1.06,1.53,1.06,2.66,0,.68-.14,1.31-.43,1.91s-.77,1.07-1.46,1.43c-.68.36-1.61.54-2.77.54h-1.18v4.38h-2.13v-11.89h3.55Zm-.13,1.77h-1.28v3.98h.97c.87,0,1.53-.16,2.01-.47.47-.32.71-.84.71-1.56,0-.65-.19-1.14-.58-1.47s-.99-.48-1.82-.48Z" fill="#5777a9"/><path d="m62.91,73.36h-2.13v-10.09h-3.41v-1.8h8.96v1.8h-3.41v10.09Z" fill="#5777a9"/><path d="m77.17,73.36h-5v-1.22l1.43-.53v-8.38l-1.43-.55v-1.22h5v1.22l-1.43.55v8.38l1.43.53v1.22Z" fill="#5777a9"/><path d="m91.2,70.11c0,1.06-.38,1.89-1.15,2.5-.77.61-1.83.92-3.18.92s-2.42-.22-3.33-.67v-2c.5.22,1.05.43,1.65.61.6.18,1.21.27,1.83.27.71,0,1.23-.14,1.57-.42.33-.28.5-.64.5-1.1,0-.5-.21-.89-.63-1.18-.42-.29-1.04-.6-1.85-.95-.49-.21-.95-.46-1.4-.75-.44-.29-.81-.66-1.1-1.1-.29-.44-.43-1.01-.43-1.7,0-1.02.36-1.82,1.07-2.39.72-.57,1.67-.86,2.87-.86.63,0,1.22.07,1.77.2.55.13,1.1.32,1.66.57l-.68,1.72c-.5-.21-.97-.38-1.42-.5-.45-.12-.91-.18-1.39-.18-.58,0-1.02.13-1.32.39s-.45.6-.45,1.01c0,.33.08.61.25.83s.42.43.77.62c.35.19.8.41,1.36.65.63.28,1.18.57,1.63.87.45.3.8.66,1.04,1.08.24.42.36.94.36,1.57Z" fill="#5777a9"/><path d="m102.71,73.36h-2.13v-10.09h-3.41v-1.8h8.96v1.8h-3.41v10.09Z" fill="#5777a9"/><path d="m127.33,63.1c-1.09,0-1.93.39-2.52,1.17-.59.78-.89,1.83-.89,3.16s.28,2.4.83,3.16c.56.76,1.41,1.14,2.57,1.14.5,0,.99-.05,1.47-.16.48-.11.98-.25,1.5-.42v1.82c-.49.2-.98.34-1.47.43-.49.09-1.06.13-1.71.13-1.22,0-2.23-.25-3.03-.76-.8-.5-1.39-1.22-1.78-2.13s-.58-1.99-.58-3.22.22-2.26.65-3.17c.43-.92,1.07-1.63,1.91-2.16.84-.52,1.86-.78,3.07-.78.6,0,1.19.07,1.77.21.58.14,1.13.33,1.64.57l-.73,1.75c-.42-.19-.86-.36-1.31-.51-.45-.15-.91-.23-1.37-.23Z" fill="#5777a9"/><path d="m147.33,73.36h-2.13v-5.28h-5.23v5.28h-2.13v-11.89h2.13v4.8h5.23v-4.8h2.13v11.89Z" fill="#5777a9"/><path d="m164.85,69.16c0,.82-.18,1.56-.52,2.22-.35.66-.88,1.18-1.59,1.57-.71.38-1.61.57-2.7.57-1.54,0-2.71-.4-3.51-1.21s-1.2-1.87-1.2-3.19v-7.66h2.13v7.44c0,.98.22,1.69.67,2.13s1.1.67,1.98.67c.92,0,1.59-.24,2.01-.72.42-.48.62-1.18.62-2.09v-7.43h2.12v7.69Z" fill="#5777a9"/><path d="m176.24,61.46c1.57,0,2.72.29,3.47.87.75.58,1.12,1.45,1.12,2.63,0,.58-.11,1.07-.32,1.48-.22.41-.5.75-.84,1.02-.34.27-.72.49-1.12.66l3.41,5.23h-2.4l-2.85-4.7h-1.73v4.7h-2.13v-11.89h3.38Zm-.13,1.78h-1.12v3.66h1.18c.88,0,1.51-.16,1.91-.47.39-.32.59-.79.59-1.41s-.21-1.1-.62-1.37c-.42-.27-1.06-.41-1.94-.41Z" fill="#5777a9"/><path d="m193.68,63.1c-1.09,0-1.93.39-2.52,1.17-.59.78-.89,1.83-.89,3.16s.28,2.4.83,3.16c.56.76,1.41,1.14,2.57,1.14.5,0,.99-.05,1.47-.16.48-.11.98-.25,1.5-.42v1.82c-.49.2-.98.34-1.47.43-.49.09-1.06.13-1.71.13-1.22,0-2.23-.25-3.03-.76-.8-.5-1.39-1.22-1.78-2.13s-.58-1.99-.58-3.22.22-2.26.65-3.17c.43-.92,1.07-1.63,1.91-2.16.84-.52,1.86-.78,3.07-.78.6,0,1.19.07,1.77.21.58.14,1.13.33,1.64.57l-.73,1.75c-.42-.19-.86-.36-1.31-.51-.45-.15-.91-.23-1.37-.23Z" fill="#5777a9"/><path d="m213.68,73.36h-2.13v-5.28h-5.23v5.28h-2.13v-11.89h2.13v4.8h5.23v-4.8h2.13v11.89Z" fill="#5777a9"/></g></g></g></svg>